# xmcd
#
# Track frame offsets:
#	182
#	22555
#	41007
#	62510
#	88060
#	99077
#	116140
#	136085
#	159435
#
# Disc length: 2527 seconds
#
# Revision: 0
# Processed by: cddbd v1.5.2PL0 Copyright (c) Steve Scherf et al.
# Submitted via: audiograbber 1.83.01
#
DISCID=6009dd09
DTITLE=Achim Reichel - Nachtexpress
DYEAR=1983
DGENRE=Rock
TTITLE0=Boxer Kutte
TTITLE1=Rattentango
TTITLE2=Der Minister
TTITLE3=Viertelstunde Superstar
TTITLE4=Jesus
TTITLE5=Rose und Hyäne
TTITLE6=Seidenrosenduft
TTITLE7=Hotel L'Orient
TTITLE8=Nachtexpress
EXTD=
EXTT0=
EXTT1=
EXTT2=
EXTT3=
EXTT4=
EXTT5=
EXTT6=
EXTT7=
EXTT8=
PLAYORDER=
